<?xml version="1.0" encoding="utf-8"?>
<!-- Generator: Adobe Illustrator 24.1.1, SVG Export Plug-In . SVG Version: 6.00 Build 0)  -->
<svg version="1.1" id="Camada_1" xmlns="http://www.w3.org/2000/svg" xmlns:xlink="http://www.w3.org/1999/xlink" x="0px" y="0px"
	 viewBox="0 0 500 500" style="enable-background:new 0 0 500 500;" xml:space="preserve">
<style type="text/css">
	.st0{fill-rule:evenodd;clip-rule:evenodd;fill:#41A152;}
</style>
<path class="st0" d="M165.5,193.8c6.4-12.8,14.2-27.3,29.8-23.1c7.7,2.1,13.6,15.2-1,23.2c-15.9,8.8-19-5.2-32.6,19.9
	c0,0.1,3.2-8-6.9-18c-54.4-53.6,6.1-81.6,9.2-19.3C164.2,179.5,163.1,190.8,165.5,193.8L165.5,193.8z M317.9,259
	c-0.4-1.3-0.8-2.6-1.2-3.9V255v0.1c-2.3-7.3-4.7-13.2-6.5-17c-1.8-3.6-6-1.4-3.9,3c3.7,5.7,6.9,12.7,9.4,20.6
	c-3.5,18.5-10.7,10.4-20.6,22.6c-9.9,12.3-0.1,21.8,7.5,20.8c15.3-1.9,17-17.5,18-31.1c3.2,1.8,6.3,12.2,7.5,14.8
	c25.2,53.9,68.5,7.3,1.2-20.4C322.5,265.6,319.3,261.9,317.9,259L317.9,259z M138.8,431.4c4.7,2,6.6,4.7,9,7c2.7,2.7,6,5.1,14.6,5.7
	c0,0-17.1,7.2-24.5,9.9c-18.6,6.8-27-0.5-25.2-11.6C114.3,432,122.3,424.2,138.8,431.4L138.8,431.4z M185.3,438.3
	c-16.6-0.8-35.7-2.2-38.6-20.8c-1.4-9.2,9.7-21.6,25.1-9.9c16.9,12.8,0.6,24.8,33.7,27.4c0.1,0-7.2-1.9-13.1,13.6
	c-31.2,83-89.6,32.1-24.9-0.7C170.6,446.4,183.2,442.3,185.3,438.3L185.3,438.3z M239,424.6c-16.1,4.1-34.8,8.3-42.9-8.7
	c-4-8.4,3-23.4,21.1-16.7c19.8,7.3,7.8,23.6,40.2,16.5c0.1,0-7.5,0.3-8.5,16.8c-5.8,88.5-76.4,56.6-24,6.6
	C227.3,436.6,238.2,429.1,239,424.6L239,424.6z M279.1,392.6c-13.7,9.4-29.8,19.7-43.3,6.6c-6.7-6.4-5.2-23,14.1-23
	c21.1,0,15.4,19.5,43.4,1.6c0.1,0-6.9,2.8-2.2,18.7c25.1,85-52.2,79.5-20.3,14.4C272.3,407.9,279.9,397.1,279.1,392.6L279.1,392.6z
	 M308,358.9c-9.8,9.5-21.2,20.2-34,11.6c-6.3-4.3-7.5-17.9,8.1-20.6c17.1-3,17.6,8.5,37.7-10c0,0-7.6,8.3-1.5,20.5
	c32.4,65.2-30.8,71.7-14.3,14.6C304.7,372.3,309.2,362.5,308,358.9L308,358.9z M324.1,315c-6.1,12.2-13.5,26-28.5,22
	c-7.3-2-12.9-14.5,0.9-22.1c15.2-8.4,18.1,5,31-18.9c0,0-3.1,7.6,6.6,17.2c51.8,51.1-5.8,77.8-8.8,18.4
	C325.3,328.6,326.4,317.9,324.1,315z M172,252.5c0.4,1.4,0.8,2.8,1.3,4.1v0.1v-0.1c2.4,7.6,4.9,13.9,6.8,17.8
	c1.8,3.8,6.3,1.5,4.1-3.2c-3.9-6-7.2-13.4-9.9-21.6c3.7-19.4,11.3-10.9,21.6-23.7c10.4-12.9,0.1-22.8-7.8-21.9
	c-16.1,2-17.8,18.4-18.9,32.7c-3.4-1.9-6.6-12.8-7.9-15.5c-26.5-56.5-71.8-7.7-1.3,21.4C167.2,245.7,170.4,249.6,172,252.5
	L172,252.5z M359.9,71.7c-4.9-2.1-6.9-4.9-9.4-7.4c-2.9-2.9-6.3-5.3-15.3-6c0,0,17.9-7.6,25.7-10.4c19.5-7.1,28.3,0.6,26.4,12.2
	C385.6,71,377.2,79.2,359.9,71.7L359.9,71.7z M311.1,64.4c17.4,0.8,37.4,2.3,40.5,21.8c1.5,9.6-10.2,22.6-26.3,10.4
	c-17.7-13.4-0.6-26-35.3-28.8c-0.1,0,7.6,2,13.7-14.3c32.8-87.1,93.9-33.6,26.1,0.7C326.5,55.9,313.3,60.2,311.1,64.4z M254.7,78.8
	c16.9-4.3,36.5-8.7,45,9.1c4.2,8.8-3.2,24.6-22.2,17.6c-20.8-7.7-8.1-24.7-42.1-17.3c-0.1,0,7.8-0.3,9-17.7
	c6.1-92.8,80.1-59.4,25.2-6.9C267,66.2,255.6,74.2,254.7,78.8z M212.6,112.4c14.4-9.8,31.3-20.7,45.4-7c7,6.8,5.5,24.2-14.8,24.1
	c-22.2,0-16.2-20.4-45.5-1.7c-0.1,0,7.2-3,2.3-19.7c-26.3-89.2,54.7-83.4,21.2-15.1C219.8,96.4,211.9,107.7,212.6,112.4L212.6,112.4
	z M182.4,147.7c10.2-10,22.3-21.2,35.7-12.1c6.6,4.5,7.9,18.7-8.5,21.6c-17.9,3.1-18.5-8.9-39.5,10.5c0,0,8-8.8,1.6-21.5
	c-34-68.4,32.3-75.2,15-15.3C185.9,133.7,181.1,144.1,182.4,147.7z"/>
</svg>
